<mxfile host="65bd71144e">
    <diagram id="fUvyPxGgMNDuXI4jBzei" name="第 1 页">
        <mxGraphModel dx="1771" dy="1178" grid="1" gridSize="10" guides="1" tooltips="1" connect="1" arrows="1" fold="1" page="1" pageScale="1" pageWidth="4681" pageHeight="3300" math="0" shadow="0">
            <root>
                <mxCell id="0"/>
                <mxCell id="1" parent="0"/>
                <mxCell id="18" value="程序开始&lt;br&gt;x3000" style="rounded=1;whiteSpace=wrap;html=1;" parent="1" vertex="1">
                    <mxGeometry x="353" y="40" width="120" height="60" as="geometry"/>
                </mxCell>
                <mxCell id="20" value="" style="endArrow=classic;html=1;exitX=0.5;exitY=1;exitDx=0;exitDy=0;entryX=0.5;entryY=0;entryDx=0;entryDy=0;" parent="1" source="18" edge="1">
                    <mxGeometry width="50" height="50" relative="1" as="geometry">
                        <mxPoint x="743" y="340" as="sourcePoint"/>
                        <mxPoint x="413" y="170" as="targetPoint"/>
                    </mxGeometry>
                </mxCell>
                <mxCell id="23" value="" style="edgeStyle=none;html=1;" parent="1" source="21" target="22" edge="1">
                    <mxGeometry relative="1" as="geometry"/>
                </mxCell>
                <mxCell id="21" value="输出&quot;Login ID: &quot;" style="shape=parallelogram;perimeter=parallelogramPerimeter;whiteSpace=wrap;html=1;fixedSize=1;" parent="1" vertex="1">
                    <mxGeometry x="353" y="140" width="120" height="60" as="geometry"/>
                </mxCell>
                <mxCell id="25" value="" style="edgeStyle=none;html=1;" parent="1" source="22" target="24" edge="1">
                    <mxGeometry relative="1" as="geometry"/>
                </mxCell>
                <mxCell id="22" value="输入密码&lt;br&gt;需要回显" style="shape=parallelogram;perimeter=parallelogramPerimeter;whiteSpace=wrap;html=1;fixedSize=1;" parent="1" vertex="1">
                    <mxGeometry x="353" y="240" width="120" height="60" as="geometry"/>
                </mxCell>
                <mxCell id="27" value="" style="edgeStyle=none;html=1;" parent="1" source="24" target="26" edge="1">
                    <mxGeometry relative="1" as="geometry"/>
                </mxCell>
                <mxCell id="24" value="输出:&quot;Password: &quot;" style="shape=parallelogram;perimeter=parallelogramPerimeter;whiteSpace=wrap;html=1;fixedSize=1;" parent="1" vertex="1">
                    <mxGeometry x="353" y="340" width="120" height="60" as="geometry"/>
                </mxCell>
                <mxCell id="29" value="" style="edgeStyle=none;html=1;" parent="1" source="26" target="28" edge="1">
                    <mxGeometry relative="1" as="geometry"/>
                </mxCell>
                <mxCell id="26" value="输入密码&lt;br&gt;需要回显" style="shape=parallelogram;perimeter=parallelogramPerimeter;whiteSpace=wrap;html=1;fixedSize=1;" parent="1" vertex="1">
                    <mxGeometry x="353" y="440" width="120" height="60" as="geometry"/>
                </mxCell>
                <mxCell id="34" value="" style="edgeStyle=none;html=1;" parent="1" source="28" target="33" edge="1">
                    <mxGeometry relative="1" as="geometry"/>
                </mxCell>
                <mxCell id="28" value="加密密码并存储" style="whiteSpace=wrap;html=1;" parent="1" vertex="1">
                    <mxGeometry x="353" y="540" width="120" height="60" as="geometry"/>
                </mxCell>
                <mxCell id="33" value="判断ID是否存在且&lt;br&gt;长度4-10" style="rhombus;whiteSpace=wrap;html=1;" parent="1" vertex="1">
                    <mxGeometry x="333" y="640" width="157" height="80" as="geometry"/>
                </mxCell>
                <mxCell id="37" value="" style="endArrow=classic;html=1;" parent="1" edge="1">
                    <mxGeometry relative="1" as="geometry">
                        <mxPoint x="280" y="680" as="sourcePoint"/>
                        <mxPoint x="280" y="880" as="targetPoint"/>
                    </mxGeometry>
                </mxCell>
                <mxCell id="39" value="" style="endArrow=none;html=1;entryX=0;entryY=0.5;entryDx=0;entryDy=0;" parent="1" target="33" edge="1">
                    <mxGeometry width="50" height="50" relative="1" as="geometry">
                        <mxPoint x="280" y="680" as="sourcePoint"/>
                        <mxPoint x="380" y="690" as="targetPoint"/>
                    </mxGeometry>
                </mxCell>
                <mxCell id="40" value="No" style="text;html=1;strokeColor=none;fillColor=none;align=center;verticalAlign=middle;whiteSpace=wrap;rounded=0;" parent="1" vertex="1">
                    <mxGeometry x="273" y="660" width="60" height="30" as="geometry"/>
                </mxCell>
                <mxCell id="42" value="" style="endArrow=none;html=1;exitX=1;exitY=0.5;exitDx=0;exitDy=0;" parent="1" source="33" edge="1">
                    <mxGeometry width="50" height="50" relative="1" as="geometry">
                        <mxPoint x="270" y="690" as="sourcePoint"/>
                        <mxPoint x="540" y="680" as="targetPoint"/>
                    </mxGeometry>
                </mxCell>
                <mxCell id="43" value="" style="endArrow=classic;html=1;" parent="1" edge="1">
                    <mxGeometry relative="1" as="geometry">
                        <mxPoint x="540" y="680" as="sourcePoint"/>
                        <mxPoint x="540" y="760" as="targetPoint"/>
                    </mxGeometry>
                </mxCell>
                <mxCell id="44" value="Yes&lt;br&gt;" style="text;html=1;strokeColor=none;fillColor=none;align=center;verticalAlign=middle;whiteSpace=wrap;rounded=0;" parent="1" vertex="1">
                    <mxGeometry x="490" y="660" width="60" height="30" as="geometry"/>
                </mxCell>
                <mxCell id="45" value="判断对应ID的密码&lt;br&gt;是否相等且长度6-10" style="rhombus;whiteSpace=wrap;html=1;" parent="1" vertex="1">
                    <mxGeometry x="460" y="760" width="160" height="80" as="geometry"/>
                </mxCell>
                <mxCell id="48" value="" style="endArrow=none;html=1;entryX=0;entryY=0.5;entryDx=0;entryDy=0;" parent="1" edge="1">
                    <mxGeometry width="50" height="50" relative="1" as="geometry">
                        <mxPoint x="280" y="800" as="sourcePoint"/>
                        <mxPoint x="459.9999999999999" y="799.66" as="targetPoint"/>
                    </mxGeometry>
                </mxCell>
                <mxCell id="50" value="No" style="text;html=1;strokeColor=none;fillColor=none;align=center;verticalAlign=middle;whiteSpace=wrap;rounded=0;" parent="1" vertex="1">
                    <mxGeometry x="350" y="780" width="60" height="30" as="geometry"/>
                </mxCell>
                <mxCell id="51" value="" style="endArrow=none;html=1;exitX=1;exitY=0.5;exitDx=0;exitDy=0;" parent="1" source="45" edge="1">
                    <mxGeometry width="50" height="50" relative="1" as="geometry">
                        <mxPoint x="530" y="960" as="sourcePoint"/>
                        <mxPoint x="660" y="800" as="targetPoint"/>
                    </mxGeometry>
                </mxCell>
                <mxCell id="52" value="" style="endArrow=classic;html=1;" parent="1" edge="1">
                    <mxGeometry relative="1" as="geometry">
                        <mxPoint x="660" y="800" as="sourcePoint"/>
                        <mxPoint x="660" y="880" as="targetPoint"/>
                    </mxGeometry>
                </mxCell>
                <mxCell id="53" value="输出&quot;&amp;lt;UserID&amp;gt;,&amp;nbsp;&lt;br&gt;you have successfully logged in.&quot;" style="shape=parallelogram;perimeter=parallelogramPerimeter;whiteSpace=wrap;html=1;fixedSize=1;" parent="1" vertex="1">
                    <mxGeometry x="580" y="880" width="150" height="60" as="geometry"/>
                </mxCell>
                <mxCell id="54" value="Yes" style="text;html=1;strokeColor=none;fillColor=none;align=center;verticalAlign=middle;whiteSpace=wrap;rounded=0;" parent="1" vertex="1">
                    <mxGeometry x="610" y="780" width="60" height="30" as="geometry"/>
                </mxCell>
                <mxCell id="55" value="输出&quot;Invalid UserID/Password. Your login failed.&quot;" style="shape=parallelogram;perimeter=parallelogramPerimeter;whiteSpace=wrap;html=1;fixedSize=1;" parent="1" vertex="1">
                    <mxGeometry x="200" y="880" width="160" height="60" as="geometry"/>
                </mxCell>
                <mxCell id="59" value="" style="edgeStyle=none;html=1;" parent="1" source="56" target="58" edge="1">
                    <mxGeometry relative="1" as="geometry"/>
                </mxCell>
                <mxCell id="56" value="开始" style="rounded=1;whiteSpace=wrap;html=1;" parent="1" vertex="1">
                    <mxGeometry x="1000" y="20" width="120" height="60" as="geometry"/>
                </mxCell>
                <mxCell id="62" value="" style="edgeStyle=none;html=1;entryX=0.5;entryY=0;entryDx=0;entryDy=0;" parent="1" source="58" target="63" edge="1">
                    <mxGeometry relative="1" as="geometry">
                        <mxPoint x="1060" y="390" as="targetPoint"/>
                    </mxGeometry>
                </mxCell>
                <mxCell id="93" value="" style="edgeStyle=none;html=1;targetPerimeterSpacing=2;" parent="1" source="58" target="92" edge="1">
                    <mxGeometry relative="1" as="geometry"/>
                </mxCell>
                <mxCell id="58" value="初始化二级指针" style="rounded=0;whiteSpace=wrap;html=1;" parent="1" vertex="1">
                    <mxGeometry x="1000" y="120" width="120" height="60" as="geometry"/>
                </mxCell>
                <mxCell id="66" value="" style="edgeStyle=none;html=1;" parent="1" source="63" target="65" edge="1">
                    <mxGeometry relative="1" as="geometry"/>
                </mxCell>
                <mxCell id="63" value="从一级指针读取内容" style="whiteSpace=wrap;html=1;rounded=0;" parent="1" vertex="1">
                    <mxGeometry x="1000" y="400" width="120" height="60" as="geometry"/>
                </mxCell>
                <mxCell id="65" value="字符是否一致？" style="rhombus;whiteSpace=wrap;html=1;rounded=0;" parent="1" vertex="1">
                    <mxGeometry x="1000" y="530" width="120" height="80" as="geometry"/>
                </mxCell>
                <mxCell id="69" value="" style="endArrow=none;html=1;" parent="1" target="65" edge="1">
                    <mxGeometry width="50" height="50" relative="1" as="geometry">
                        <mxPoint x="940" y="570" as="sourcePoint"/>
                        <mxPoint x="1000" y="570" as="targetPoint"/>
                    </mxGeometry>
                </mxCell>
                <mxCell id="71" value="" style="endArrow=none;html=1;" parent="1" edge="1">
                    <mxGeometry width="50" height="50" relative="1" as="geometry">
                        <mxPoint x="940" y="630" as="sourcePoint"/>
                        <mxPoint x="940" y="570" as="targetPoint"/>
                    </mxGeometry>
                </mxCell>
                <mxCell id="73" value="一级指针自增&lt;br&gt;继续检测下一个" style="rounded=0;whiteSpace=wrap;html=1;glass=0;shadow=0;" parent="1" vertex="1">
                    <mxGeometry x="750" y="730" width="120" height="60" as="geometry"/>
                </mxCell>
                <mxCell id="76" value="Yes" style="text;html=1;strokeColor=none;fillColor=none;align=center;verticalAlign=middle;whiteSpace=wrap;rounded=0;shadow=0;glass=0;sketch=0;" parent="1" vertex="1">
                    <mxGeometry x="940" y="530" width="60" height="30" as="geometry"/>
                </mxCell>
                <mxCell id="79" value="&#10;&lt;span style=&quot;color: rgb(240, 240, 240); font-family: Helvetica; font-size: 12px; font-style: normal; font-variant-ligatures: normal; font-variant-caps: normal; font-weight: 400; letter-spacing: normal; orphans: 2; text-align: center; text-indent: 0px; text-transform: none; widows: 2; word-spacing: 0px; -webkit-text-stroke-width: 0px; background-color: rgb(42, 37, 47); text-decoration-thickness: initial; text-decoration-style: initial; text-decoration-color: initial; float: none; display: inline !important;&quot;&gt;本次ID&lt;/span&gt;&lt;br style=&quot;border-color: rgb(0, 0, 0); color: rgb(240, 240, 240); font-family: Helvetica; font-size: 12px; font-style: normal; font-variant-ligatures: normal; font-variant-caps: normal; font-weight: 400; letter-spacing: normal; orphans: 2; text-align: center; text-indent: 0px; text-transform: none; widows: 2; word-spacing: 0px; -webkit-text-stroke-width: 0px; background-color: rgb(42, 37, 47); text-decoration-thickness: initial; text-decoration-style: initial; text-decoration-color: initial;&quot;&gt;&lt;span style=&quot;color: rgb(240, 240, 240); font-family: Helvetica; font-size: 12px; font-style: normal; font-variant-ligatures: normal; font-variant-caps: normal; font-weight: 400; letter-spacing: normal; orphans: 2; text-align: center; text-indent: 0px; text-transform: none; widows: 2; word-spacing: 0px; -webkit-text-stroke-width: 0px; background-color: rgb(42, 37, 47); text-decoration-thickness: initial; text-decoration-style: initial; text-decoration-color: initial; float: none; display: inline !important;&quot;&gt;是否已经读取完毕&lt;/span&gt;&#10;&#10;" style="rhombus;whiteSpace=wrap;html=1;rounded=0;shadow=0;glass=0;sketch=0;" parent="1" vertex="1">
                    <mxGeometry x="870" y="630" width="140" height="80" as="geometry"/>
                </mxCell>
                <mxCell id="81" value="" style="endArrow=none;html=1;" parent="1" edge="1">
                    <mxGeometry width="50" height="50" relative="1" as="geometry">
                        <mxPoint x="810" y="669.5" as="sourcePoint"/>
                        <mxPoint x="870" y="669.5" as="targetPoint"/>
                    </mxGeometry>
                </mxCell>
                <mxCell id="82" value="" style="endArrow=none;html=1;" parent="1" edge="1">
                    <mxGeometry width="50" height="50" relative="1" as="geometry">
                        <mxPoint x="810" y="730" as="sourcePoint"/>
                        <mxPoint x="810" y="670" as="targetPoint"/>
                    </mxGeometry>
                </mxCell>
                <mxCell id="83" value="" style="endArrow=none;html=1;entryX=0.75;entryY=1;entryDx=0;entryDy=0;" parent="1" target="95" edge="1">
                    <mxGeometry width="50" height="50" relative="1" as="geometry">
                        <mxPoint x="1010" y="669.5" as="sourcePoint"/>
                        <mxPoint x="1170" y="670" as="targetPoint"/>
                    </mxGeometry>
                </mxCell>
                <mxCell id="85" value="二级指针更新" style="rounded=0;whiteSpace=wrap;html=1;glass=0;shadow=0;" parent="1" vertex="1">
                    <mxGeometry x="1060" y="680" width="120" height="60" as="geometry"/>
                </mxCell>
                <mxCell id="86" value="" style="endArrow=none;html=1;entryX=0;entryY=0.5;entryDx=0;entryDy=0;" parent="1" target="73" edge="1">
                    <mxGeometry width="50" height="50" relative="1" as="geometry">
                        <mxPoint x="700" y="760" as="sourcePoint"/>
                        <mxPoint x="710" y="660" as="targetPoint"/>
                    </mxGeometry>
                </mxCell>
                <mxCell id="87" value="" style="endArrow=none;html=1;" parent="1" edge="1">
                    <mxGeometry width="50" height="50" relative="1" as="geometry">
                        <mxPoint x="700" y="760" as="sourcePoint"/>
                        <mxPoint x="700" y="350" as="targetPoint"/>
                    </mxGeometry>
                </mxCell>
                <mxCell id="91" value="" style="endArrow=classic;html=1;targetPerimeterSpacing=2;" parent="1" edge="1">
                    <mxGeometry width="50" height="50" relative="1" as="geometry">
                        <mxPoint x="700" y="350" as="sourcePoint"/>
                        <mxPoint x="1060" y="350" as="targetPoint"/>
                    </mxGeometry>
                </mxCell>
                <mxCell id="92" value="初始化一级指针&amp;nbsp;&amp;nbsp;" style="whiteSpace=wrap;html=1;rounded=0;" parent="1" vertex="1">
                    <mxGeometry x="1000" y="230" width="120" height="60" as="geometry"/>
                </mxCell>
                <mxCell id="94" value="No" style="text;html=1;strokeColor=none;fillColor=none;align=center;verticalAlign=middle;whiteSpace=wrap;rounded=0;shadow=0;glass=0;sketch=0;" parent="1" vertex="1">
                    <mxGeometry x="810" y="640" width="60" height="30" as="geometry"/>
                </mxCell>
                <mxCell id="95" value="Yes" style="text;html=1;strokeColor=none;fillColor=none;align=center;verticalAlign=middle;whiteSpace=wrap;rounded=0;shadow=0;glass=0;sketch=0;" parent="1" vertex="1">
                    <mxGeometry x="1000" y="640" width="60" height="30" as="geometry"/>
                </mxCell>
                <mxCell id="96" value="" style="endArrow=none;html=1;" parent="1" edge="1">
                    <mxGeometry width="50" height="50" relative="1" as="geometry">
                        <mxPoint x="1120" y="569.5" as="sourcePoint"/>
                        <mxPoint x="1170" y="570" as="targetPoint"/>
                    </mxGeometry>
                </mxCell>
                <mxCell id="97" value="" style="endArrow=none;html=1;" parent="1" edge="1">
                    <mxGeometry width="50" height="50" relative="1" as="geometry">
                        <mxPoint x="1170" y="630" as="sourcePoint"/>
                        <mxPoint x="1170" y="570" as="targetPoint"/>
                    </mxGeometry>
                </mxCell>
                <mxCell id="98" value="No" style="text;html=1;strokeColor=none;fillColor=none;align=center;verticalAlign=middle;whiteSpace=wrap;rounded=0;shadow=0;glass=0;sketch=0;" parent="1" vertex="1">
                    <mxGeometry x="1120" y="530" width="60" height="30" as="geometry"/>
                </mxCell>
                <mxCell id="100" value="" style="edgeStyle=none;html=1;targetPerimeterSpacing=2;" parent="1" edge="1">
                    <mxGeometry relative="1" as="geometry">
                        <mxPoint x="1170" y="625" as="sourcePoint"/>
                        <mxPoint x="1170" y="680" as="targetPoint"/>
                    </mxGeometry>
                </mxCell>
                <mxCell id="101" value="是否完成所有判断" style="rhombus;whiteSpace=wrap;html=1;rounded=0;shadow=0;glass=0;sketch=0;" parent="1" vertex="1">
                    <mxGeometry x="1050" y="800" width="140" height="80" as="geometry"/>
                </mxCell>
                <mxCell id="102" value="" style="endArrow=classic;html=1;targetPerimeterSpacing=2;exitX=0.5;exitY=1;exitDx=0;exitDy=0;" parent="1" source="85" edge="1">
                    <mxGeometry width="50" height="50" relative="1" as="geometry">
                        <mxPoint x="1120" y="840" as="sourcePoint"/>
                        <mxPoint x="1120" y="800" as="targetPoint"/>
                    </mxGeometry>
                </mxCell>
                <mxCell id="103" value="" style="endArrow=none;html=1;" parent="1" edge="1">
                    <mxGeometry width="50" height="50" relative="1" as="geometry">
                        <mxPoint x="1190" y="840" as="sourcePoint"/>
                        <mxPoint x="1250" y="840" as="targetPoint"/>
                    </mxGeometry>
                </mxCell>
                <mxCell id="104" value="" style="endArrow=none;html=1;" parent="1" edge="1">
                    <mxGeometry width="50" height="50" relative="1" as="geometry">
                        <mxPoint x="1250" y="840" as="sourcePoint"/>
                        <mxPoint x="1250" y="210" as="targetPoint"/>
                    </mxGeometry>
                </mxCell>
                <mxCell id="105" value="No" style="text;html=1;strokeColor=none;fillColor=none;align=center;verticalAlign=middle;whiteSpace=wrap;rounded=0;shadow=0;glass=0;sketch=0;" parent="1" vertex="1">
                    <mxGeometry x="1190" y="810" width="60" height="30" as="geometry"/>
                </mxCell>
                <mxCell id="107" value="" style="endArrow=none;html=1;targetPerimeterSpacing=2;" parent="1" edge="1">
                    <mxGeometry width="50" height="50" relative="1" as="geometry">
                        <mxPoint x="1060" y="210" as="sourcePoint"/>
                        <mxPoint x="1250" y="210" as="targetPoint"/>
                    </mxGeometry>
                </mxCell>
                <mxCell id="108" value="" style="endArrow=none;html=1;" parent="1" edge="1">
                    <mxGeometry width="50" height="50" relative="1" as="geometry">
                        <mxPoint x="990" y="839.9999999999999" as="sourcePoint"/>
                        <mxPoint x="1050" y="839.9999999999999" as="targetPoint"/>
                    </mxGeometry>
                </mxCell>
                <mxCell id="109" value="Yes" style="text;html=1;strokeColor=none;fillColor=none;align=center;verticalAlign=middle;whiteSpace=wrap;rounded=0;shadow=0;glass=0;sketch=0;" parent="1" vertex="1">
                    <mxGeometry x="1000" y="810" width="60" height="30" as="geometry"/>
                </mxCell>
                <mxCell id="110" value="" style="endArrow=none;html=1;exitX=0.5;exitY=0;exitDx=0;exitDy=0;" parent="1" source="111" edge="1">
                    <mxGeometry width="50" height="50" relative="1" as="geometry">
                        <mxPoint x="990" y="980" as="sourcePoint"/>
                        <mxPoint x="990" y="1000" as="targetPoint"/>
                    </mxGeometry>
                </mxCell>
                <mxCell id="111" value="Mamba Out" style="rounded=0;whiteSpace=wrap;html=1;shadow=0;glass=0;sketch=0;" parent="1" vertex="1">
                    <mxGeometry x="930" y="1020" width="120" height="60" as="geometry"/>
                </mxCell>
                <mxCell id="113" value="" style="endArrow=none;html=1;targetPerimeterSpacing=2;" parent="1" edge="1">
                    <mxGeometry width="50" height="50" relative="1" as="geometry">
                        <mxPoint x="1045" y="730" as="sourcePoint"/>
                        <mxPoint x="1045" y="670" as="targetPoint"/>
                    </mxGeometry>
                </mxCell>
                <mxCell id="114" value="" style="endArrow=none;html=1;targetPerimeterSpacing=2;" parent="1" edge="1">
                    <mxGeometry width="50" height="50" relative="1" as="geometry">
                        <mxPoint x="930" y="730" as="sourcePoint"/>
                        <mxPoint x="1045" y="730" as="targetPoint"/>
                    </mxGeometry>
                </mxCell>
                <mxCell id="115" value="" style="endArrow=none;html=1;targetPerimeterSpacing=2;" parent="1" edge="1">
                    <mxGeometry width="50" height="50" relative="1" as="geometry">
                        <mxPoint x="930" y="880" as="sourcePoint"/>
                        <mxPoint x="930" y="730" as="targetPoint"/>
                    </mxGeometry>
                </mxCell>
                <mxCell id="116" value="输出成功信息" style="rounded=0;whiteSpace=wrap;html=1;shadow=0;glass=0;sketch=0;" parent="1" vertex="1">
                    <mxGeometry x="830" y="880" width="120" height="60" as="geometry"/>
                </mxCell>
                <mxCell id="117" value="" style="endArrow=none;html=1;targetPerimeterSpacing=2;" parent="1" edge="1">
                    <mxGeometry width="50" height="50" relative="1" as="geometry">
                        <mxPoint x="930" y="1000" as="sourcePoint"/>
                        <mxPoint x="930" y="940" as="targetPoint"/>
                    </mxGeometry>
                </mxCell>
                <mxCell id="118" value="" style="endArrow=none;html=1;targetPerimeterSpacing=2;" parent="1" edge="1">
                    <mxGeometry width="50" height="50" relative="1" as="geometry">
                        <mxPoint x="930" y="1000" as="sourcePoint"/>
                        <mxPoint x="990" y="1000" as="targetPoint"/>
                    </mxGeometry>
                </mxCell>
                <mxCell id="119" value="" style="endArrow=none;html=1;targetPerimeterSpacing=2;" parent="1" edge="1">
                    <mxGeometry width="50" height="50" relative="1" as="geometry">
                        <mxPoint x="989.58" y="890" as="sourcePoint"/>
                        <mxPoint x="989.58" y="840" as="targetPoint"/>
                    </mxGeometry>
                </mxCell>
                <mxCell id="120" value="输出失败信息" style="rounded=0;whiteSpace=wrap;html=1;shadow=0;glass=0;sketch=0;" parent="1" vertex="1">
                    <mxGeometry x="970" y="890" width="120" height="60" as="geometry"/>
                </mxCell>
                <mxCell id="121" value="" style="endArrow=none;html=1;targetPerimeterSpacing=2;entryX=0.165;entryY=1.035;entryDx=0;entryDy=0;entryPerimeter=0;" parent="1" target="120" edge="1">
                    <mxGeometry width="50" height="50" relative="1" as="geometry">
                        <mxPoint x="990" y="1000" as="sourcePoint"/>
                        <mxPoint x="1040" y="950" as="targetPoint"/>
                    </mxGeometry>
                </mxCell>
            </root>
        </mxGraphModel>
    </diagram>
</mxfile>